<svg width="60" height="60" viewBox="0 0 60 60" fill="none" xmlns="http://www.w3.org/2000/svg">
    <path fill-rule="evenodd" clip-rule="evenodd"
        d="M13.7288 13.8602C13.7288 12.2805 15.0094 11 16.589 11H40.9322H41.1229C41.1632 11 41.2033 11.0008 41.2432 11.0025C51.6306 11.1686 60 19.6408 60 30.0678C60 40.4948 51.6305 48.9671 41.243 49.1331C41.2032 49.1348 41.1631 49.1356 41.1229 49.1356H40.9444L40.9322 49.1356L40.92 49.1356H16.589C15.0094 49.1356 13.7288 47.855 13.7288 46.2754C13.7288 44.6958 15.0094 43.4153 16.589 43.4153H22.3767C24.2148 43.4153 25.2612 41.0878 24.3515 39.4905C23.9572 38.7981 23.2362 38.3305 22.4394 38.3305H15.0636C13.4839 38.3305 12.2034 37.05 12.2034 35.4703C12.2034 33.8907 13.4839 32.6102 15.0636 32.6102H19.4826C20.8328 32.6102 21.8644 31.418 21.8644 30.0678C21.8644 28.7176 20.8328 27.5254 19.4826 27.5254H11.1229C9.54325 27.5254 8.26271 26.2449 8.26271 24.6653C8.26271 23.0856 9.54325 21.8051 11.1229 21.8051H22.4394C23.2362 21.8051 23.9572 21.3375 24.3515 20.6451C25.2612 19.0478 24.2148 16.7203 22.3766 16.7203H16.589C15.0094 16.7203 13.7288 15.4398 13.7288 13.8602ZM5.72034 24.6653C5.72034 26.2449 4.4398 27.5254 2.86017 27.5254C1.28054 27.5254 0 26.2449 0 24.6653C0 23.0856 1.28054 21.8051 2.86017 21.8051C4.4398 21.8051 5.72034 23.0856 5.72034 24.6653ZM8.32627 49.1356C9.9059 49.1356 11.1864 47.855 11.1864 46.2754C11.1864 44.6958 9.9059 43.4153 8.32627 43.4153C6.74664 43.4153 5.4661 44.6958 5.4661 46.2754C5.4661 47.855 6.74664 49.1356 8.32627 49.1356Z"
        fill="url(#paint0_linear_1486_4545)" />
    <ellipse cx="40.932" cy="30.0677" rx="15.2542" ry="15.2542" fill="white" />
    <path
        d="M40.9962 40.5094C46.7979 40.5094 51.5011 35.8062 51.5011 30.0045C51.5011 24.2027 46.7979 19.4995 40.9962 19.4995C35.1944 19.4995 30.4912 24.2027 30.4912 30.0045C30.4912 35.8062 35.1944 40.5094 40.9962 40.5094Z"
        fill="#292F33" />
    <path
        d="M49.3997 30.0041C49.3997 34.6454 45.6371 38.408 40.9958 38.408C36.3544 38.408 32.5918 34.6454 32.5918 30.0041C32.5918 25.3627 36.3544 21.6001 40.9958 21.6001C45.6371 21.6001 49.3997 25.3627 49.3997 30.0041Z"
        fill="#FFC02D" />
    <path
        d="M41.889 25.4716L40.3201 23.9027C40.4376 23.7661 40.4972 23.5891 40.4864 23.4093C40.4755 23.2294 40.395 23.0609 40.262 22.9394C40.1289 22.818 39.9538 22.7531 39.7737 22.7586C39.5936 22.7641 39.4228 22.8396 39.2974 22.969C39.1306 23.1358 39.0675 23.3663 39.1052 23.5814C38.9597 23.5555 38.8096 23.5767 38.677 23.642C38.5443 23.7073 38.436 23.8132 38.3677 23.9443C38.2993 24.0754 38.2746 24.2249 38.2972 24.371C38.3197 24.5171 38.3882 24.6522 38.4928 24.7567C38.7493 25.0131 39.154 25.0243 39.4266 24.7962L40.9955 26.3646L41.889 25.4716Z"
        fill="#FFE8B6" />
    <path
        d="M46.971 31.4477C47.4178 31.001 48.5474 29.0835 46.984 27.5201C45.8946 26.4307 45.0165 26.4931 43.3833 26.0884C42.7134 25.8647 41.8397 25.0595 41.6166 24.8364C41.3929 25.0595 41.4714 25.8764 41.4714 25.8764C41.4714 25.8764 40.4981 25.9555 40.2744 26.1786C40.4975 26.4017 41.5356 27.3836 41.7173 27.8439C42.2055 29.3937 42.1499 30.1822 43.2399 31.271C45.0264 33.0575 46.5249 31.8945 46.971 31.4477Z"
        fill="#C1694F" />
    <path
        d="M35.6399 29.0773C35.6399 30.2718 37.5549 31.2401 36.361 31.2401C36.077 31.2401 35.7958 31.1842 35.5334 31.0755C35.271 30.9668 35.0325 30.8075 34.8317 30.6067C34.6309 30.4058 34.4716 30.1674 34.3629 29.905C34.2542 29.6426 34.1982 29.3614 34.1982 29.0773C34.1982 28.7933 34.2542 28.5121 34.3629 28.2497C34.4716 27.9873 34.6309 27.7488 34.8317 27.548C35.0325 27.3472 35.271 27.1879 35.5334 27.0792C35.7958 26.9705 36.077 26.9146 36.361 26.9146C37.5555 26.9146 35.6399 27.8829 35.6399 29.0773ZM41.0067 34.9416C41.9948 35.418 43.5625 34.2204 43.0854 35.2091C42.8561 35.6839 42.4477 36.0482 41.9498 36.2218C41.452 36.3954 40.9055 36.3641 40.4308 36.1348C39.956 35.9055 39.5917 35.497 39.4181 34.9992C39.2445 34.5013 39.2758 33.9549 39.5051 33.4801C39.9821 32.4914 40.0186 34.4645 41.0067 34.9416Z"
        fill="#77B255" />
    <path
        d="M39.1421 30.6221C39.8247 30.6221 40.378 30.0688 40.378 29.3863C40.378 28.7037 39.8247 28.1504 39.1421 28.1504C38.4596 28.1504 37.9062 28.7037 37.9062 29.3863C37.9062 30.0688 38.4596 30.6221 39.1421 30.6221Z"
        fill="#F4900C" />
    <path
        d="M44.7039 34.3296C45.0452 34.3296 45.3218 34.053 45.3218 33.7117C45.3218 33.3704 45.0452 33.0938 44.7039 33.0938C44.3626 33.0938 44.0859 33.3704 44.0859 33.7117C44.0859 34.053 44.3626 34.3296 44.7039 34.3296Z"
        fill="#F4900C" />
    <path
        d="M36.6707 33.712C37.012 33.712 37.2886 33.4353 37.2886 33.094C37.2886 32.7527 37.012 32.4761 36.6707 32.4761C36.3294 32.4761 36.0527 32.7527 36.0527 33.094C36.0527 33.4353 36.3294 33.712 36.6707 33.712Z"
        fill="#F4900C" />
    <defs>
        <linearGradient id="paint0_linear_1486_4545" x1="60" y1="49.1356" x2="-4.06491" y2="19.9109"
            gradientUnits="userSpaceOnUse">
            <stop stop-color="#1BAC4B" />
            <stop offset="1" stop-color="#46D375" />
        </linearGradient>
    </defs>
</svg>
