<svg width="59" height="58" viewBox="0 0 59 58" fill="none" xmlns="http://www.w3.org/2000/svg">
<rect x="1" y="0.5" width="57" height="57" rx="15.5" fill="white"/>
<rect x="1" y="0.5" width="57" height="57" rx="15.5" stroke="#E0E0E0"/>
<path d="M36.5 28H30.5V22C30.5 21.7348 30.3946 21.4804 30.2071 21.2929C30.0196 21.1054 29.7652 21 29.5 21C29.2348 21 28.9804 21.1054 28.7929 21.2929C28.6054 21.4804 28.5 21.7348 28.5 22V28H22.5C22.2348 28 21.9804 28.1054 21.7929 28.2929C21.6054 28.4804 21.5 28.7348 21.5 29C21.5 29.2652 21.6054 29.5196 21.7929 29.7071C21.9804 29.8946 22.2348 30 22.5 30H28.5V36C28.5 36.2652 28.6054 36.5196 28.7929 36.7071C28.9804 36.8946 29.2348 37 29.5 37C29.7652 37 30.0196 36.8946 30.2071 36.7071C30.3946 36.5196 30.5 36.2652 30.5 36V30H36.5C36.7652 30 37.0196 29.8946 37.2071 29.7071C37.3946 29.5196 37.5 29.2652 37.5 29C37.5 28.7348 37.3946 28.4804 37.2071 28.2929C37.0196 28.1054 36.7652 28 36.5 28Z" fill="#1BAC4B"/>
</svg>
