<svg width="72" height="72" viewBox="0 0 72 72" fill="none" xmlns="http://www.w3.org/2000/svg">
<rect width="72" height="72" rx="36" fill="url(#paint0_linear_1454_48132)"/>
<path fill-rule="evenodd" clip-rule="evenodd" d="M22.668 36.0201C22.668 28.9962 28.2813 22.6667 36.028 22.6667C43.6013 22.6667 49.3346 28.8761 49.3346 35.9801C49.3346 44.2191 42.6146 49.3334 36.0013 49.3334C33.8146 49.3334 31.388 48.7459 29.4413 47.5975C28.7613 47.1835 28.188 46.8764 27.4546 47.1168L24.7613 47.918C24.0813 48.1316 23.468 47.5975 23.668 46.8764L24.5613 43.8852C24.708 43.4713 24.6813 43.0306 24.468 42.6834C23.3213 40.5736 22.668 38.2635 22.668 36.0201ZM34.268 36.0201C34.268 36.9682 35.028 37.7293 35.9746 37.7427C36.9213 37.7427 37.6813 36.9682 37.6813 36.0335C37.6813 35.0854 36.9213 34.3242 35.9746 34.3242C35.0413 34.3109 34.268 35.0854 34.268 36.0201ZM40.4146 36.0335C40.4146 36.9682 41.1746 37.7427 42.1213 37.7427C43.068 37.7427 43.828 36.9682 43.828 36.0335C43.828 35.0854 43.068 34.3242 42.1213 34.3242C41.1746 34.3242 40.4146 35.0854 40.4146 36.0335ZM29.828 37.7427C28.8946 37.7427 28.1213 36.9682 28.1213 36.0335C28.1213 35.0854 28.8813 34.3242 29.828 34.3242C30.7746 34.3242 31.5346 35.0854 31.5346 36.0335C31.5346 36.9682 30.7746 37.7293 29.828 37.7427Z" fill="white"/>
<defs>
<linearGradient id="paint0_linear_1454_48132" x1="72" y1="72" x2="-13.6735" y2="47.1597" gradientUnits="userSpaceOnUse">
<stop stop-color="#1BAC4B"/>
<stop offset="1" stop-color="#46D375"/>
</linearGradient>
</defs>
</svg>
