<svg width="21" height="21" viewBox="0 0 21 21" fill="none" xmlns="http://www.w3.org/2000/svg">
<path d="M17.166 2.16675H8.83268C8.39065 2.16675 7.96673 2.34234 7.65417 2.6549C7.34161 2.96746 7.16602 3.39139 7.16602 3.83341V5.50008H13.8327C14.2747 5.50008 14.6986 5.67568 15.0112 5.98824C15.3238 6.3008 15.4993 6.72472 15.4993 7.16675V13.8334H17.166C17.608 13.8334 18.032 13.6578 18.3445 13.3453C18.6571 13.0327 18.8327 12.6088 18.8327 12.1667V3.83341C18.8327 3.39139 18.6571 2.96746 18.3445 2.6549C18.032 2.34234 17.608 2.16675 17.166 2.16675Z" fill="#1BAC4B"/>
<path d="M3.83268 18.8334H12.166C13.0852 18.8334 13.8327 18.0859 13.8327 17.1667V8.83341C13.8327 7.91425 13.0852 7.16675 12.166 7.16675H3.83268C2.91352 7.16675 2.16602 7.91425 2.16602 8.83341V17.1667C2.16602 18.0859 2.91352 18.8334 3.83268 18.8334ZM5.49935 10.5001H10.4993V12.1667H5.49935V10.5001ZM5.49935 13.8334H10.4993V15.5001H5.49935V13.8334Z" fill="#1BAC4B"/>
</svg>
