<svg width="56" height="56" viewBox="0 0 56 56" fill="none" xmlns="http://www.w3.org/2000/svg">
<rect width="56" height="56" rx="28" fill="url(#paint0_linear_1447_28314)"/>
<path d="M33.9189 30.32C33.6599 30.571 33.5409 30.934 33.5999 31.29L34.4889 36.21C34.5639 36.627 34.3879 37.049 34.0389 37.29C33.6969 37.54 33.2419 37.57 32.8689 37.37L28.4399 35.06C28.2859 34.978 28.1149 34.934 27.9399 34.929H27.6689C27.5749 34.943 27.4829 34.973 27.3989 35.019L22.9689 37.34C22.7499 37.45 22.5019 37.489 22.2589 37.45C21.6669 37.338 21.2719 36.774 21.3689 36.179L22.2589 31.259C22.3179 30.9 22.1989 30.535 21.9399 30.28L18.3289 26.78C18.0269 26.487 17.9219 26.047 18.0599 25.65C18.1939 25.254 18.5359 24.965 18.9489 24.9L23.9189 24.179C24.2969 24.14 24.6289 23.91 24.7989 23.57L26.9889 19.08C27.0409 18.98 27.1079 18.888 27.1889 18.81L27.2789 18.74C27.3259 18.688 27.3799 18.645 27.4399 18.61L27.5489 18.57L27.7189 18.5H28.1399C28.5159 18.539 28.8469 18.764 29.0199 19.1L31.2389 23.57C31.3989 23.897 31.7099 24.124 32.0689 24.179L37.0389 24.9C37.4589 24.96 37.8099 25.25 37.9489 25.65C38.0799 26.051 37.9669 26.491 37.6589 26.78L33.9189 30.32Z" fill="white"/>
<defs>
<linearGradient id="paint0_linear_1447_28314" x1="56" y1="56" x2="-10.635" y2="36.6798" gradientUnits="userSpaceOnUse">
<stop stop-color="#1BAC4B"/>
<stop offset="1" stop-color="#46D375"/>
</linearGradient>
</defs>
</svg>
