<svg width="28" height="28" viewBox="0 0 28 28" fill="none" xmlns="http://www.w3.org/2000/svg">
<path d="M13.9993 0.666748C6.64735 0.666748 0.666016 6.64808 0.666016 14.0001C0.666016 21.3521 6.64735 27.3334 13.9993 27.3334C21.3513 27.3334 27.3327 21.3521 27.3327 14.0001C27.3327 6.64808 21.3513 0.666748 13.9993 0.666748ZM15.3327 20.5534V22.0001H12.666V20.5601C9.54735 20.0707 8.66602 17.8907 8.66602 16.6667H11.3327C11.3473 16.8574 11.5447 18.0001 13.9993 18.0001C15.8393 18.0001 16.666 17.2201 16.666 16.6667C16.666 16.2347 16.666 15.3334 13.9993 15.3334C9.35935 15.3334 8.66602 12.8267 8.66602 11.3334C8.66602 9.61608 10.038 7.88808 12.666 7.44675V6.01608H15.3327V7.49475C17.6447 8.04141 18.5327 9.96542 18.5327 11.3334H17.1993L15.866 11.3574C15.8473 10.8507 15.5793 10.0001 13.9993 10.0001C12.2673 10.0001 11.3327 10.6881 11.3327 11.3334C11.3327 11.8321 11.3327 12.6667 13.9993 12.6667C18.6393 12.6667 19.3327 15.1734 19.3327 16.6667C19.3327 18.3841 17.9607 20.1121 15.3327 20.5534Z" fill="#1BAC4B"/>
</svg>
