<svg width="48" height="48" viewBox="0 0 48 48" fill="none" xmlns="http://www.w3.org/2000/svg">
<rect x="0.5" y="0.5" width="47" height="47" rx="23.5" stroke="#EEEEEE"/>
<mask id="mask0_1430_22447" style="mask-type:luminance" maskUnits="userSpaceOnUse" x="14" y="18" width="20" height="17">
<path fill-rule="evenodd" clip-rule="evenodd" d="M14 18.54H33.5859V34.7216H14V18.54Z" fill="white"/>
</mask>
<g mask="url(#mask0_1430_22447)">
<path fill-rule="evenodd" clip-rule="evenodd" d="M18.7155 20.04C18.2745 20.04 16.8005 20.218 16.3775 22.502L15.6055 28.502C15.3545 30.185 15.5485 31.403 16.1835 32.14C16.8105 32.868 17.9325 33.222 19.6125 33.222H27.9605C29.0085 33.222 30.4395 33.013 31.3035 32.015C31.9895 31.224 32.2255 30.046 32.0055 28.513L31.2265 22.461C30.8945 20.97 30.0185 20.04 28.8945 20.04H18.7155ZM27.9605 34.722H19.6125C17.4695 34.722 15.9765 34.197 15.0475 33.118C14.1145 32.036 13.8025 30.413 14.1205 28.295L14.8965 22.269C15.4065 19.506 17.2715 18.54 18.7155 18.54H28.8945C30.3445 18.54 32.1075 19.503 32.7025 22.204L33.4915 28.311C33.7745 30.282 33.4205 31.863 32.4375 32.997C31.4595 34.125 29.9115 34.722 27.9605 34.722Z" fill="#212121"/>
</g>
<path fill-rule="evenodd" clip-rule="evenodd" d="M28.0975 19.8202C27.6835 19.8202 27.3475 19.4842 27.3475 19.0702C27.3475 17.1012 25.7455 15.5002 23.7775 15.5002H23.7625C22.8215 15.5002 21.9045 15.8792 21.2395 16.5402C20.5715 17.2052 20.1885 18.1282 20.1885 19.0702C20.1885 19.4842 19.8525 19.8202 19.4385 19.8202C19.0245 19.8202 18.6885 19.4842 18.6885 19.0702C18.6885 17.7312 19.2325 16.4222 20.1805 15.4772C21.1255 14.5382 22.4285 14.0002 23.7595 14.0002H23.7805C26.5735 14.0002 28.8475 16.2742 28.8475 19.0702C28.8475 19.4842 28.5115 19.8202 28.0975 19.8202Z" fill="#212121"/>
<path fill-rule="evenodd" clip-rule="evenodd" d="M26.7433 24.3241H26.6973C26.2833 24.3241 25.9473 23.9881 25.9473 23.5741C25.9473 23.1601 26.2833 22.8241 26.6973 22.8241C27.1113 22.8241 27.4703 23.1601 27.4703 23.5741C27.4703 23.9881 27.1573 24.3241 26.7433 24.3241Z" fill="#212121"/>
<path fill-rule="evenodd" clip-rule="evenodd" d="M20.9122 24.3241H20.8672C20.4532 24.3241 20.1172 23.9881 20.1172 23.5741C20.1172 23.1601 20.4532 22.8241 20.8672 22.8241C21.2812 22.8241 21.6402 23.1601 21.6402 23.5741C21.6402 23.9881 21.3262 24.3241 20.9122 24.3241Z" fill="#212121"/>
<circle cx="31" cy="17" r="3" fill="#F75555"/>
</svg>
