<svg width="60" height="60" viewBox="0 0 60 60" fill="none" xmlns="http://www.w3.org/2000/svg">
<rect width="60" height="60" rx="30" fill="#F75555" fill-opacity="0.08"/>
<path fill-rule="evenodd" clip-rule="evenodd" d="M24.949 18.3324H35.064C39.019 18.3324 41.6673 21.1091 41.6673 25.2391V34.7719C41.6673 38.8902 39.019 41.6657 35.064 41.6657H24.949C20.994 41.6657 18.334 38.8902 18.334 34.7719V25.2391C18.334 21.1091 20.994 18.3324 24.949 18.3324ZM33.5123 33.4991C33.909 33.1036 33.909 32.4619 33.5123 32.0652L31.4357 29.9886L33.5123 27.9107C33.909 27.5152 33.909 26.8619 33.5123 26.4652C33.1157 26.0674 32.474 26.0674 32.0657 26.4652L30.0007 28.5407L27.924 26.4652C27.5157 26.0674 26.874 26.0674 26.4773 26.4652C26.0807 26.8619 26.0807 27.5152 26.4773 27.9107L28.554 29.9886L26.4773 32.0536C26.0807 32.4619 26.0807 33.1036 26.4773 33.4991C26.6757 33.6974 26.944 33.8036 27.2007 33.8036C27.469 33.8036 27.7257 33.6974 27.924 33.4991L30.0007 31.4352L32.0773 33.4991C32.2757 33.7102 32.5323 33.8036 32.789 33.8036C33.0573 33.8036 33.314 33.6974 33.5123 33.4991Z" fill="url(#paint0_linear_1454_48993)"/>
<defs>
<linearGradient id="paint0_linear_1454_48993" x1="41.6673" y1="41.6657" x2="13.9027" y2="33.6156" gradientUnits="userSpaceOnUse">
<stop stop-color="#FF4D67"/>
<stop offset="1" stop-color="#FF8A9B"/>
</linearGradient>
</defs>
</svg>
