<svg width="72" height="72" viewBox="0 0 72 72" fill="none" xmlns="http://www.w3.org/2000/svg">
<rect width="72" height="72" rx="36" fill="url(#paint0_linear_1454_48130)"/>
<path d="M37.8799 36.0001L43.6132 30.2801C43.8643 30.029 44.0054 29.6885 44.0054 29.3334C44.0054 28.9783 43.8643 28.6378 43.6132 28.3868C43.3622 28.1357 43.0217 27.9946 42.6666 27.9946C42.3115 27.9946 41.971 28.1357 41.7199 28.3868L35.9999 34.1201L30.2799 28.3868C30.0288 28.1357 29.6883 27.9946 29.3333 27.9946C28.9782 27.9946 28.6377 28.1357 28.3866 28.3868C28.1355 28.6378 27.9945 28.9783 27.9945 29.3334C27.9945 29.6885 28.1355 30.029 28.3866 30.2801L34.1199 36.0001L28.3866 41.7201C28.2616 41.844 28.1624 41.9915 28.0947 42.154C28.027 42.3165 27.9922 42.4907 27.9922 42.6667C27.9922 42.8428 28.027 43.017 28.0947 43.1795C28.1624 43.342 28.2616 43.4895 28.3866 43.6134C28.5105 43.7384 28.658 43.8376 28.8205 43.9053C28.983 43.973 29.1572 44.0078 29.3333 44.0078C29.5093 44.0078 29.6835 43.973 29.846 43.9053C30.0085 43.8376 30.156 43.7384 30.2799 43.6134L35.9999 37.8801L41.7199 43.6134C41.8439 43.7384 41.9913 43.8376 42.1538 43.9053C42.3163 43.973 42.4906 44.0078 42.6666 44.0078C42.8426 44.0078 43.0169 43.973 43.1794 43.9053C43.3418 43.8376 43.4893 43.7384 43.6132 43.6134C43.7382 43.4895 43.8374 43.342 43.9051 43.1795C43.9728 43.017 44.0076 42.8428 44.0076 42.6667C44.0076 42.4907 43.9728 42.3165 43.9051 42.154C43.8374 41.9915 43.7382 41.844 43.6132 41.7201L37.8799 36.0001Z" fill="white"/>
<defs>
<linearGradient id="paint0_linear_1454_48130" x1="72" y1="72" x2="-13.6735" y2="47.1597" gradientUnits="userSpaceOnUse">
<stop stop-color="#FF4D67"/>
<stop offset="1" stop-color="#FF8A9B"/>
</linearGradient>
</defs>
</svg>
