<svg width="14" height="14" viewBox="0 0 14 14" fill="none" xmlns="http://www.w3.org/2000/svg">
<path d="M8.64493 7.00001L13.6616 1.99501C13.8813 1.77533 14.0047 1.47736 14.0047 1.16668C14.0047 0.855994 13.8813 0.558034 13.6616 0.338346C13.4419 0.118659 13.1439 -0.00476074 12.8333 -0.00476074C12.5226 -0.00476074 12.2246 0.118659 12.0049 0.338346L6.99993 5.35501L1.99493 0.338346C1.77524 0.118659 1.47728 -0.00476074 1.1666 -0.00476074C0.85591 -0.00476074 0.55795 0.118659 0.338262 0.338346C0.118574 0.558034 -0.0048449 0.855994 -0.0048449 1.16668C-0.00484491 1.47736 0.118574 1.77533 0.338262 1.99501L5.35493 7.00001L0.338262 12.005C0.228912 12.1135 0.142119 12.2425 0.0828891 12.3847C0.023659 12.5268 -0.00683594 12.6793 -0.00683594 12.8333C-0.00683594 12.9874 0.023659 13.1399 0.0828891 13.282C0.142119 13.4242 0.228912 13.5532 0.338262 13.6617C0.446719 13.771 0.575753 13.8578 0.717923 13.9171C0.860092 13.9763 1.01258 14.0068 1.1666 14.0068C1.32061 14.0068 1.4731 13.9763 1.61527 13.9171C1.75744 13.8578 1.88647 13.771 1.99493 13.6617L6.99993 8.64501L12.0049 13.6617C12.1134 13.771 12.2424 13.8578 12.3846 13.9171C12.5268 13.9763 12.6792 14.0068 12.8333 14.0068C12.9873 14.0068 13.1398 13.9763 13.2819 13.9171C13.4241 13.8578 13.5531 13.771 13.6616 13.6617C13.7709 13.5532 13.8577 13.4242 13.917 13.282C13.9762 13.1399 14.0067 12.9874 14.0067 12.8333C14.0067 12.6793 13.9762 12.5268 13.917 12.3847C13.8577 12.2425 13.7709 12.1135 13.6616 12.005L8.64493 7.00001Z" fill="#212121"/>
</svg>
