<svg width="16" height="16" viewBox="0 0 16 16" fill="none" xmlns="http://www.w3.org/2000/svg">
<path d="M15.105 4.16496C15.3821 4.40741 15.4102 4.82859 15.1677 5.10568L9.3344 11.7723C9.21476 11.9091 9.04449 11.9911 8.86299 11.9993C8.68149 12.0076 8.50448 11.9414 8.37291 11.8161L6.69466 10.2178L5.3344 11.7723C5.21476 11.9091 5.04449 11.9911 4.86299 11.9993C4.68149 12.0076 4.50448 11.9414 4.37291 11.8161L0.872913 8.48277C0.606293 8.22884 0.596001 7.80686 0.849925 7.54024C1.10385 7.27362 1.52583 7.26333 1.79245 7.51725L4.78889 10.371L5.72828 9.29741L4.87291 8.48277C4.60629 8.22884 4.596 7.80686 4.84993 7.54024C5.10385 7.27362 5.52583 7.26333 5.79245 7.51725L8.78889 10.371L14.1643 4.22767C14.4068 3.95058 14.8279 3.9225 15.105 4.16496Z" fill="white"/>
<path d="M11.1677 5.10568C11.4102 4.82859 11.3821 4.40741 11.105 4.16496C10.8279 3.9225 10.4068 3.95058 10.1643 4.22767L7.83097 6.89434C7.58851 7.17143 7.61659 7.59261 7.89368 7.83506C8.17077 8.07752 8.59195 8.04944 8.8344 7.77235L11.1677 5.10568Z" fill="white"/>
</svg>
