<svg width="14" height="14" viewBox="0 0 14 14" fill="none" xmlns="http://www.w3.org/2000/svg">
<path fill-rule="evenodd" clip-rule="evenodd" d="M0.333008 9.71967V4.27301C0.333008 1.91967 1.84701 0.333008 4.10634 0.333008H9.88634C12.1463 0.333008 13.6663 1.91967 13.6663 4.27301V9.71967C13.6663 12.0797 12.1463 13.6663 9.88634 13.6663H4.10634C1.84701 13.6663 0.333008 12.0797 0.333008 9.71967ZM7.49967 8.51301V4.27967C7.49967 3.99967 7.27301 3.77967 6.99967 3.77967C6.71967 3.77967 6.49967 3.99967 6.49967 4.27967V8.51301L4.85301 6.85967C4.75968 6.76634 4.62634 6.71301 4.49967 6.71301C4.37367 6.71301 4.24634 6.76634 4.14634 6.85967C3.95301 7.05301 3.95301 7.37301 4.14634 7.56634L6.64634 10.0797C6.83301 10.2663 7.16634 10.2663 7.35301 10.0797L9.85301 7.56634C10.0463 7.37301 10.0463 7.05301 9.85301 6.85967C9.65301 6.66634 9.33967 6.66634 9.13967 6.85967L7.49967 8.51301Z" fill="url(#paint0_linear_1795_4595)"/>
<defs>
<linearGradient id="paint0_linear_1795_4595" x1="13.6663" y1="13.6663" x2="-2.19913" y2="9.06629" gradientUnits="userSpaceOnUse">
<stop stop-color="#1BAC4B"/>
<stop offset="1" stop-color="#46D375"/>
</linearGradient>
</defs>
</svg>
