<svg width="14" height="14" viewBox="0 0 14 14" fill="none" xmlns="http://www.w3.org/2000/svg">
<path d="M6.48738 3.86067V1.188C6.48738 0.903812 6.71405 0.666992 7.00072 0.666992C7.25738 0.666992 7.47484 0.865986 7.5093 1.11805L7.51405 1.188V3.86067L10.7007 3.86088C12.2873 3.86088 13.5909 5.16018 13.6641 6.7806L13.6673 6.92438V10.2839C13.6673 11.9157 12.4091 13.2551 10.846 13.3303L10.7073 13.3337H3.29398C1.70732 13.3337 0.410044 12.0409 0.33721 10.4145L0.333984 10.2701L0.333984 6.9175C0.333984 5.28573 1.58592 3.9398 3.14865 3.86422L3.28732 3.86088H6.48732V8.12914L5.42065 7.02765C5.22065 6.82112 4.89398 6.82112 4.69398 7.02765C4.59398 7.13091 4.54732 7.2686 4.54732 7.40629C4.54732 7.51093 4.57718 7.61997 4.64033 7.71228L4.69398 7.77804L6.63398 9.78825C6.72732 9.89151 6.86065 9.94659 7.00065 9.94659C7.11176 9.94659 7.22287 9.90834 7.31084 9.83583L7.36065 9.78825L9.30065 7.77804C9.50065 7.57151 9.50065 7.23418 9.30065 7.02765C9.11883 6.8399 8.83233 6.82283 8.63148 6.97644L8.57398 7.02765L7.51398 8.12914V3.86088L6.48738 3.86067Z" fill="#212121"/>
</svg>
