<svg width="20" height="21" viewBox="0 0 20 21" fill="none" xmlns="http://www.w3.org/2000/svg">
<path fill-rule="evenodd" clip-rule="evenodd" d="M18.3992 7.64611L19.1194 8.36611C19.6897 8.92611 19.9998 9.68611 19.9998 10.4861C20.0098 11.2861 19.6997 12.0471 19.1395 12.6161C19.1328 12.6234 19.1261 12.6299 19.1194 12.6363C19.1161 12.6396 19.1128 12.6428 19.1094 12.6461L18.3992 13.3561C18.1191 13.6361 17.959 14.0161 17.959 14.4171V15.4461C17.959 17.1061 16.6085 18.4571 14.9479 18.4571H13.9176C13.5174 18.4571 13.1373 18.6161 12.8572 18.8961L12.1369 19.6161C11.5467 20.2071 10.7764 20.4961 10.0061 20.4961C9.23586 20.4961 8.46558 20.2071 7.87537 19.6271L7.14511 18.8961C6.865 18.6161 6.48487 18.4571 6.08472 18.4571H5.05435C3.39375 18.4571 2.04326 17.1061 2.04326 15.4461V14.4171C2.04326 14.0161 1.8832 13.6361 1.6031 13.3461L0.882836 12.6361C-0.287588 11.4671 -0.297592 9.55611 0.872832 8.37711L1.6031 7.64611C1.8832 7.36611 2.04326 6.98611 2.04326 6.57611V5.55611C2.04326 3.89611 3.39375 2.54711 5.05435 2.54711H6.08472C6.48487 2.54711 6.865 2.38611 7.14511 2.10611L7.86537 1.38611C9.03579 0.207111 10.9465 0.207111 12.1269 1.37711L12.8572 2.10611C13.1373 2.38611 13.5174 2.54711 13.9176 2.54711H14.9479C16.6085 2.54711 17.959 3.89611 17.959 5.55611V6.58711C17.959 6.98611 18.1191 7.36611 18.3992 7.64611ZM7.42521 13.9461C7.66529 13.9461 7.88537 13.8561 8.04543 13.6861L13.1873 8.54711C13.5274 8.20711 13.5274 7.64611 13.1873 7.30611C12.8472 6.96711 12.297 6.96711 11.9569 7.30611L6.81499 12.4461C6.47486 12.7861 6.47486 13.3461 6.81499 13.6861C6.97504 13.8561 7.19512 13.9461 7.42521 13.9461ZM11.6968 13.0661C11.6968 13.5561 12.0869 13.9461 12.5771 13.9461C13.0572 13.9461 13.4474 13.5561 13.4474 13.0661C13.4474 12.5871 13.0572 12.1961 12.5771 12.1961C12.0869 12.1961 11.6968 12.5871 11.6968 13.0661ZM7.43521 7.05611C7.91539 7.05611 8.30553 7.44611 8.30553 7.92611C8.30553 8.41711 7.91539 8.80611 7.43521 8.80611C6.95504 8.80611 6.55489 8.41711 6.55489 7.92611C6.55489 7.44611 6.95504 7.05611 7.43521 7.05611Z" fill="url(#paint0_linear_1602_8984)"/>
<defs>
<linearGradient id="paint0_linear_1602_8984" x1="20" y1="20.4961" x2="-3.79735" y2="13.5947" gradientUnits="userSpaceOnUse">
<stop stop-color="#1BAC4B"/>
<stop offset="1" stop-color="#46D375"/>
</linearGradient>
</defs>
</svg>
