<svg width="40" height="40" viewBox="0 0 40 40" fill="none" xmlns="http://www.w3.org/2000/svg">
    <path fill-rule="evenodd" clip-rule="evenodd"
        d="M27.7732 3.35023C30.1707 3.20039 32.535 4.03286 34.3165 5.66451C35.9481 7.446 36.7806 9.81022 36.6474 12.2244V27.775C36.7973 30.1891 35.9481 32.5534 34.3331 34.3348C32.5516 35.9665 30.1707 36.799 27.7732 36.6491H12.2225C9.80832 36.799 7.44408 35.9665 5.66257 34.3348C4.03091 32.5534 3.19843 30.1891 3.34828 27.775V12.2244C3.19843 9.81022 4.03091 7.446 5.66257 5.66451C7.44408 4.03286 9.80832 3.20039 12.2225 3.35023H27.7732ZM18.3003 28.0744L29.5054 16.8361C30.521 15.8038 30.521 14.1389 29.5054 13.1232L27.341 10.9588C26.3087 9.92655 24.6437 9.92655 23.6115 10.9588L22.4959 12.091C22.3294 12.2575 22.3294 12.5405 22.4959 12.707C22.4959 12.707 25.1432 15.3376 25.1932 15.4042C25.3763 15.604 25.4929 15.8704 25.4929 16.1701C25.4929 16.7695 25.01 17.2689 24.394 17.2689C24.111 17.2689 23.8446 17.1524 23.6614 16.9693L20.8809 14.2055C20.7477 14.0723 20.5146 14.0723 20.3814 14.2055L12.4396 22.1472C11.8902 22.6967 11.5738 23.4292 11.5572 24.2118L11.4573 28.1577C11.4573 28.3741 11.5239 28.5739 11.6737 28.7238C11.8236 28.8736 12.0234 28.9569 12.2398 28.9569H16.1525C16.9516 28.9569 17.7175 28.6405 18.3003 28.0744Z"
        fill="#1BAC4B" />
</svg>
