<svg width="18" height="18" viewBox="0 0 18 18" fill="none" xmlns="http://www.w3.org/2000/svg">
<path d="M10.966 10.8584C10.409 11.3076 9.71493 11.5525 8.99935 11.5525C8.28377 11.5525 7.58975 11.3076 7.03269 10.8584C6.86251 10.717 6.6431 10.6489 6.42275 10.6692C6.20239 10.6895 5.99914 10.7966 5.85769 10.9667C5.71624 11.1369 5.64819 11.3563 5.6685 11.5767C5.68882 11.797 5.79584 12.0003 5.96602 12.1417C6.81713 12.8523 7.89065 13.2414 8.99935 13.2414C10.1081 13.2414 11.1816 12.8523 12.0327 12.1417C12.2029 12.0003 12.3099 11.797 12.3302 11.5767C12.3505 11.3563 12.2825 11.1369 12.141 10.9667C12.071 10.8825 11.985 10.8128 11.8881 10.7618C11.7911 10.7107 11.6851 10.6793 11.576 10.6692C11.3556 10.6489 11.1362 10.717 10.966 10.8584ZM6.49935 8.16675C6.66417 8.16675 6.82529 8.11787 6.96233 8.02631C7.09937 7.93474 7.20618 7.80459 7.26925 7.65232C7.33232 7.50005 7.34883 7.33249 7.31667 7.17084C7.28452 7.00919 7.20515 6.8607 7.08861 6.74416C6.97206 6.62762 6.82358 6.54825 6.66193 6.51609C6.50028 6.48394 6.33272 6.50044 6.18045 6.56352C6.02818 6.62659 5.89803 6.7334 5.80646 6.87044C5.71489 7.00748 5.66602 7.1686 5.66602 7.33342C5.66602 7.55443 5.75382 7.76639 5.9101 7.92267C6.06638 8.07895 6.27834 8.16675 6.49935 8.16675ZM11.4994 6.50008C11.3345 6.50008 11.1734 6.54896 11.0364 6.64052C10.8993 6.73209 10.7925 6.86224 10.7295 7.01451C10.6664 7.16678 10.6499 7.33434 10.682 7.49599C10.7142 7.65764 10.7936 7.80613 10.9101 7.92267C11.0266 8.03921 11.1751 8.11858 11.3368 8.15074C11.4984 8.18289 11.666 8.16639 11.8183 8.10331C11.9705 8.04024 12.1007 7.93343 12.1922 7.79639C12.2838 7.65935 12.3327 7.49823 12.3327 7.33342C12.3327 7.1124 12.2449 6.90044 12.0886 6.74416C11.9323 6.58788 11.7204 6.50008 11.4994 6.50008ZM8.99935 0.666748C7.35118 0.666748 5.74001 1.15549 4.3696 2.07117C2.99919 2.98685 1.93109 4.28834 1.30036 5.81105C0.669626 7.33377 0.504599 9.00933 0.826142 10.6258C1.14769 12.2423 1.94136 13.7272 3.1068 14.8926C4.27223 16.0581 5.75709 16.8517 7.3736 17.1733C8.99011 17.4948 10.6657 17.3298 12.1884 16.6991C13.7111 16.0683 15.0126 15.0002 15.9283 13.6298C16.8439 12.2594 17.3327 10.6483 17.3327 9.00008C17.3327 7.90573 17.1171 6.8221 16.6983 5.81105C16.2796 4.80001 15.6657 3.88135 14.8919 3.10752C14.1181 2.3337 13.1994 1.71987 12.1884 1.30109C11.1773 0.882296 10.0937 0.666748 8.99935 0.666748ZM8.99935 15.6667C7.68081 15.6667 6.39188 15.2758 5.29555 14.5432C4.19922 13.8107 3.34474 12.7695 2.84016 11.5513C2.33557 10.3331 2.20355 8.99269 2.46078 7.69948C2.71802 6.40627 3.35296 5.21839 4.28531 4.28604C5.21766 3.35369 6.40554 2.71875 7.69875 2.46151C8.99196 2.20428 10.3324 2.3363 11.5506 2.84088C12.7687 3.34547 13.8099 4.19995 14.5425 5.29628C15.275 6.39261 15.666 7.68154 15.666 9.00008C15.666 10.7682 14.9636 12.4639 13.7134 13.7141C12.4632 14.9644 10.7675 15.6667 8.99935 15.6667Z" fill="#9E9E9E"/>
</svg>
