<svg width="16" height="14" viewBox="0 0 16 14" fill="none" xmlns="http://www.w3.org/2000/svg">
<path d="M6.60802 10.8279H1.35742" stroke="#1BAC4B" stroke-width="1.5" stroke-linecap="round" stroke-linejoin="round"/>
<path d="M8.9502 2.75072H14.2008" stroke="#1BAC4B" stroke-width="1.5" stroke-linecap="round" stroke-linejoin="round"/>
<path fill-rule="evenodd" clip-rule="evenodd" d="M5.27158 2.70521C5.27158 1.6255 4.38978 0.75 3.30229 0.75C2.21481 0.75 1.33301 1.6255 1.33301 2.70521C1.33301 3.78492 2.21481 4.66042 3.30229 4.66042C4.38978 4.66042 5.27158 3.78492 5.27158 2.70521Z" stroke="#1BAC4B" stroke-width="1.5" stroke-linecap="round" stroke-linejoin="round"/>
<path fill-rule="evenodd" clip-rule="evenodd" d="M14.6661 10.7951C14.6661 9.71534 13.785 8.83984 12.6975 8.83984C11.6093 8.83984 10.7275 9.71534 10.7275 10.7951C10.7275 11.8748 11.6093 12.7503 12.6975 12.7503C13.785 12.7503 14.6661 11.8748 14.6661 10.7951Z" stroke="#1BAC4B" stroke-width="1.5" stroke-linecap="round" stroke-linejoin="round"/>
</svg>
