<svg width="18" height="20" viewBox="0 0 18 20" fill="none" xmlns="http://www.w3.org/2000/svg">
<path d="M17.9471 6.30545C17.937 5.54807 17.7952 4.79822 17.5281 4.08945C17.2964 3.4916 16.9426 2.94864 16.4892 2.49528C16.0359 2.04191 15.4929 1.6881 14.8951 1.45645C14.1954 1.1938 13.4562 1.05179 12.7091 1.03645C11.7471 0.993445 11.4421 0.981445 9.00007 0.981445C6.55807 0.981445 6.24507 0.981445 5.29007 1.03645C4.54323 1.0519 3.80442 1.19391 3.10507 1.45645C2.50713 1.68793 1.96409 2.04169 1.5107 2.49508C1.05732 2.94847 0.703559 3.4915 0.47207 4.08945C0.208901 4.78858 0.0671935 5.52756 0.0530703 6.27445C0.0100703 7.23745 -0.00292969 7.54245 -0.00292969 9.98445C-0.00292969 12.4264 -0.00292969 12.7384 0.0530703 13.6944C0.0680703 14.4424 0.20907 15.1804 0.47207 15.8814C0.703948 16.4792 1.05797 17.022 1.51151 17.4752C1.96505 17.9284 2.50813 18.282 3.10607 18.5134C3.8035 18.7866 4.54244 18.9388 5.29107 18.9634C6.25407 19.0064 6.55907 19.0194 9.00107 19.0194C11.4431 19.0194 11.7561 19.0194 12.7111 18.9634C13.4582 18.9487 14.1974 18.807 14.8971 18.5444C15.4948 18.3125 16.0376 17.9586 16.4909 17.5053C16.9442 17.052 17.2982 16.5091 17.5301 15.9114C17.7931 15.2114 17.9341 14.4734 17.9491 13.7244C17.9921 12.7624 18.0051 12.4574 18.0051 10.0144C18.0031 7.57245 18.0031 7.26245 17.9471 6.30545ZM8.99407 14.6024C6.44007 14.6024 4.37107 12.5334 4.37107 9.97945C4.37107 7.42545 6.44007 5.35645 8.99407 5.35645C10.2202 5.35645 11.396 5.84351 12.263 6.71049C13.13 7.57747 13.6171 8.75335 13.6171 9.97945C13.6171 11.2055 13.13 12.3814 12.263 13.2484C11.396 14.1154 10.2202 14.6024 8.99407 14.6024ZM13.8011 6.26344C13.6595 6.26358 13.5192 6.23578 13.3884 6.18166C13.2575 6.12753 13.1386 6.04813 13.0385 5.948C12.9384 5.84787 12.859 5.72898 12.8049 5.59813C12.7507 5.46729 12.7229 5.32705 12.7231 5.18545C12.7231 5.04395 12.7509 4.90383 12.8051 4.7731C12.8592 4.64238 12.9386 4.52359 13.0387 4.42354C13.1387 4.32348 13.2575 4.24411 13.3882 4.18997C13.519 4.13582 13.6591 4.10795 13.8006 4.10795C13.9421 4.10795 14.0822 4.13582 14.2129 4.18997C14.3436 4.24411 14.4624 4.32348 14.5625 4.42354C14.6625 4.52359 14.7419 4.64238 14.7961 4.7731C14.8502 4.90383 14.8781 5.04395 14.8781 5.18545C14.8781 5.78145 14.3961 6.26344 13.8011 6.26344Z" fill="#1BAC4B"/>
<path d="M8.99421 12.9816C10.6527 12.9816 11.9972 11.6371 11.9972 9.97859C11.9972 8.32008 10.6527 6.97559 8.99421 6.97559C7.3357 6.97559 5.99121 8.32008 5.99121 9.97859C5.99121 11.6371 7.3357 12.9816 8.99421 12.9816Z" fill="#1BAC4B"/>
</svg>
