<svg width="60" height="60" viewBox="0 0 60 60" fill="none" xmlns="http://www.w3.org/2000/svg">
<rect width="60" height="60" rx="30" fill="#1BAC4B" fill-opacity="0.08"/>
<path fill-rule="evenodd" clip-rule="evenodd" d="M35.752 24.1667C35.7891 24.084 35.8065 23.9939 35.8028 23.9034H35.8333C35.7029 20.7903 33.1324 18.3334 30.0058 18.3334C26.8792 18.3334 24.3087 20.7903 24.1782 23.9034C24.1628 23.9905 24.1628 24.0796 24.1782 24.1667H24.087C22.5919 24.1667 20.9937 25.1537 20.5297 27.8068L19.6224 35.0339C18.88 40.3401 21.6124 41.6667 25.18 41.6667H34.8516C38.4088 41.6667 41.0587 39.7458 40.3988 35.0339L39.5018 27.8068C38.9553 25.228 37.4086 24.1667 35.9342 24.1667H35.752ZM34.0754 24.1667C34.0429 24.0826 34.0257 23.9935 34.0246 23.9034C34.0246 21.6663 32.2048 19.8528 29.96 19.8528C27.7152 19.8528 25.8955 21.6663 25.8955 23.9034C25.9109 23.9905 25.9109 24.0796 25.8955 24.1667H34.0754ZM26.6132 30.1734C26.0437 30.1734 25.5821 29.6982 25.5821 29.1121C25.5821 28.526 26.0437 28.0509 26.6132 28.0509C27.1826 28.0509 27.6443 28.526 27.6443 29.1121C27.6443 29.6982 27.1826 30.1734 26.6132 30.1734ZM32.3357 29.1121C32.3357 29.6982 32.7973 30.1734 33.3668 30.1734C33.9362 30.1734 34.3979 29.6982 34.3979 29.1121C34.3979 28.526 33.9362 28.0509 33.3668 28.0509C32.7973 28.0509 32.3357 28.526 32.3357 29.1121Z" fill="url(#paint0_linear_1454_49006)"/>
<defs>
<linearGradient id="paint0_linear_1454_49006" x1="40.5" y1="41.6667" x2="15.1382" y2="35.0486" gradientUnits="userSpaceOnUse">
<stop stop-color="#1BAC4B"/>
<stop offset="1" stop-color="#46D375"/>
</linearGradient>
</defs>
</svg>
