<svg width="52" height="52" viewBox="0 0 52 52" fill="none" xmlns="http://www.w3.org/2000/svg">
<rect width="52" height="52" rx="26" fill="#1BAC4B" fill-opacity="0.08"/>
<rect x="8" y="8" width="36" height="36" rx="18" fill="url(#paint0_linear_1686_2920)"/>
<path fill-rule="evenodd" clip-rule="evenodd" d="M18.917 24.5982C18.917 20.765 22.1202 17.6667 25.9949 17.6667C29.8804 17.6667 33.0837 20.765 33.0837 24.5982C33.0837 26.5298 32.3812 28.3231 31.2249 29.8431C29.9493 31.5197 28.3771 32.9805 26.6074 34.1271C26.2024 34.3921 25.8369 34.4121 25.3924 34.1271C23.6126 32.9805 22.0404 31.5197 20.7757 29.8431C19.6186 28.3231 18.917 26.5298 18.917 24.5982ZM23.6622 24.814C23.6622 26.0982 24.71 27.1081 25.9949 27.1081C27.2805 27.1081 28.3385 26.0982 28.3385 24.814C28.3385 23.5399 27.2805 22.4808 25.9949 22.4808C24.71 22.4808 23.6622 23.5399 23.6622 24.814Z" fill="white"/>
<defs>
<linearGradient id="paint0_linear_1686_2920" x1="44" y1="44" x2="1.16323" y2="31.5799" gradientUnits="userSpaceOnUse">
<stop stop-color="#1BAC4B"/>
<stop offset="1" stop-color="#46D375"/>
</linearGradient>
</defs>
</svg>
