<svg width="59" height="58" viewBox="0 0 59 58" fill="none" xmlns="http://www.w3.org/2000/svg">
<rect x="1" y="0.5" width="57" height="57" rx="15.5" fill="#1F222A"/>
<rect x="1" y="0.5" width="57" height="57" rx="15.5" stroke="#35383F"/>
<path d="M36.5 28H22.5C22.2348 28 21.9804 28.1054 21.7929 28.2929C21.6054 28.4804 21.5 28.7348 21.5 29C21.5 29.2652 21.6054 29.5196 21.7929 29.7071C21.9804 29.8946 22.2348 30 22.5 30H36.5C36.7652 30 37.0196 29.8946 37.2071 29.7071C37.3946 29.5196 37.5 29.2652 37.5 29C37.5 28.7348 37.3946 28.4804 37.2071 28.2929C37.0196 28.1054 36.7652 28 36.5 28Z" fill="#1BAC4B"/>
</svg>
