<svg width="25" height="24" viewBox="0 0 25 24" fill="none" xmlns="http://www.w3.org/2000/svg">
<path fill-rule="evenodd" clip-rule="evenodd" d="M8.20941 2H16.5904C19.6794 2 21.3994 3.78 21.3994 6.83V17.16C21.3994 20.26 19.6794 22 16.5904 22H8.20941C5.16941 22 3.39941 20.26 3.39941 17.16V6.83C3.39941 3.78 5.16941 2 8.20941 2ZM8.47941 6.66V6.65H11.4684C11.8994 6.65 12.2494 7 12.2494 7.429C12.2494 7.87 11.8994 8.22 11.4684 8.22H8.47941C8.04841 8.22 7.69941 7.87 7.69941 7.44C7.69941 7.01 8.04841 6.66 8.47941 6.66ZM8.47941 12.74H16.3194C16.7494 12.74 17.0994 12.39 17.0994 11.96C17.0994 11.53 16.7494 11.179 16.3194 11.179H8.47941C8.04841 11.179 7.69941 11.53 7.69941 11.96C7.69941 12.39 8.04841 12.74 8.47941 12.74ZM8.47941 17.31H16.3194C16.7184 17.27 17.0194 16.929 17.0194 16.53C17.0194 16.12 16.7184 15.78 16.3194 15.74H8.47941C8.17941 15.71 7.88941 15.85 7.72941 16.11C7.56941 16.36 7.56941 16.69 7.72941 16.95C7.88941 17.2 8.17941 17.35 8.47941 17.31Z" fill="#1BAC4B"/>
</svg>
