<svg width="27" height="23" viewBox="0 0 27 23" fill="none" xmlns="http://www.w3.org/2000/svg">
<path fill-rule="evenodd" clip-rule="evenodd" d="M25.542 13.2808H1.04199C0.558992 13.2808 0.166992 12.8888 0.166992 12.4058C0.166992 11.9228 0.558992 11.5308 1.04199 11.5308H25.542C26.025 11.5308 26.417 11.9228 26.417 12.4058C26.417 12.8888 26.025 13.2808 25.542 13.2808" fill="#212121"/>
<path fill-rule="evenodd" clip-rule="evenodd" d="M23.3606 8.36917C22.8776 8.36917 22.4856 7.97717 22.4856 7.49417V5.72783C22.4856 3.811 20.9246 2.25 19.0054 2.25H17.5996C17.1166 2.25 16.7246 1.858 16.7246 1.375C16.7246 0.892 17.1166 0.5 17.5996 0.5H19.0054C21.8894 0.5 24.2356 2.84617 24.2356 5.72783V7.49417C24.2356 7.97717 23.8436 8.36917 23.3606 8.36917" fill="#212121"/>
<path fill-rule="evenodd" clip-rule="evenodd" d="M3.22363 8.36917C2.74063 8.36917 2.34863 7.97717 2.34863 7.49417V5.72783C2.34863 2.84617 4.6948 0.5 7.5788 0.5H9.0208C9.5038 0.5 9.8958 0.892 9.8958 1.375C9.8958 1.858 9.5038 2.25 9.0208 2.25H7.5788C5.65963 2.25 4.09863 3.811 4.09863 5.72783V7.49417C4.09863 7.97717 3.70663 8.36917 3.22363 8.36917" fill="#212121"/>
<path fill-rule="evenodd" clip-rule="evenodd" d="M19.0054 22.3875H17.5996C17.1166 22.3875 16.7246 21.9955 16.7246 21.5125C16.7246 21.0295 17.1166 20.6375 17.5996 20.6375H19.0054C20.9246 20.6375 22.4856 19.0765 22.4856 17.1585V12.4043C22.4856 11.9213 22.8776 11.5293 23.3606 11.5293C23.8436 11.5293 24.2356 11.9213 24.2356 12.4043V17.1585C24.2356 20.0413 21.8894 22.3875 19.0054 22.3875" fill="#212121"/>
<path fill-rule="evenodd" clip-rule="evenodd" d="M9.0208 22.3875H7.5788C4.6948 22.3875 2.34863 20.0413 2.34863 17.1585V12.4043C2.34863 11.9213 2.74063 11.5293 3.22363 11.5293C3.70663 11.5293 4.09863 11.9213 4.09863 12.4043V17.1585C4.09863 19.0765 5.65963 20.6375 7.5788 20.6375H9.0208C9.5038 20.6375 9.8958 21.0295 9.8958 21.5125C9.8958 21.9955 9.5038 22.3875 9.0208 22.3875" fill="#212121"/>
</svg>
