<svg width="14" height="12" viewBox="0 0 14 12" fill="none" xmlns="http://www.w3.org/2000/svg">
<path fill-rule="evenodd" clip-rule="evenodd" d="M4.03046 0.185287C4.14125 0.265261 4.31992 0.448965 4.31992 0.448965C5.01353 1.09905 6.05824 2.71596 6.39374 3.53629C6.40076 3.53629 6.59972 4.02406 6.60752 4.25606V4.28694C6.60752 4.64247 6.40856 4.97504 6.08867 5.14528C5.9568 5.21547 5.63604 5.28074 5.48129 5.31223C5.43004 5.32266 5.397 5.32939 5.39506 5.33136C4.93785 5.40104 4.23644 5.44696 3.46636 5.44696C2.65806 5.44696 1.92621 5.40104 1.47603 5.31552C1.46822 5.31552 1.05705 5.2308 0.919731 5.17616C0.721556 5.09143 0.553809 4.93624 0.44692 4.74303C0.370458 4.58863 0.333008 4.42551 0.333008 4.25606C0.34003 4.0779 0.454722 3.74533 0.507777 3.61389C0.84327 2.74684 1.94104 1.09113 2.61202 0.456883C2.68172 0.386146 2.76105 0.312041 2.81624 0.260476C2.84569 0.232964 2.86827 0.211868 2.87886 0.201124C3.0466 0.0696806 3.25258 0 3.47416 0C3.67156 0 3.86973 0.0617624 4.03046 0.185287ZM11.1521 4.77452C11.1521 5.12372 10.8736 5.40641 10.5295 5.40641C10.1854 5.40641 9.90686 5.12372 9.90686 4.77452L9.73521 1.72197C9.73521 1.27695 10.091 0.916667 10.5295 0.916667C10.968 0.916667 11.323 1.27695 11.323 1.72197L11.1521 4.77452ZM13.0796 6.82373C13.2778 6.90925 13.4455 7.06366 13.5524 7.25687C13.6289 7.41127 13.6663 7.57439 13.6663 7.74464C13.6593 7.92201 13.5446 8.25538 13.4908 8.38682C13.1561 9.2531 12.0575 10.9088 11.3873 11.5439C11.3188 11.613 11.2409 11.6856 11.1859 11.737L11.1858 11.737C11.1551 11.7657 11.1314 11.7878 11.1205 11.7989C10.952 11.9303 10.7468 12 10.526 12C10.327 12 10.1288 11.9382 9.96889 11.8139C9.8581 11.7347 9.67943 11.551 9.67943 11.551C8.98503 10.9017 7.9411 9.28398 7.60561 8.46363C7.59781 8.46363 7.39963 7.97665 7.39183 7.74464V7.71376C7.39183 7.35743 7.59001 7.02486 7.91068 6.85461C8.04228 6.78515 8.36202 6.7197 8.51712 6.68795C8.5689 6.67735 8.60234 6.67051 8.60429 6.66853C9.0615 6.59885 9.76291 6.55292 10.533 6.55292C11.3413 6.55292 12.0731 6.59885 12.5233 6.68436C12.5303 6.68436 12.9423 6.76909 13.0796 6.82373ZM3.47003 6.59369C3.12595 6.59369 2.84741 6.87637 2.84741 7.22556L2.67577 10.278C2.67577 10.7231 3.03155 11.0833 3.47003 11.0833C3.90851 11.0833 4.26351 10.7231 4.26351 10.278L4.09264 7.22556C4.09264 6.87637 3.8141 6.59369 3.47003 6.59369Z" fill="#1BAC4B"/>
</svg>
