<svg width="14" height="14" viewBox="0 0 14 14" fill="none" xmlns="http://www.w3.org/2000/svg">
<path d="M10.452 8.35337C10.3009 8.49979 10.2315 8.71154 10.2659 8.91921L10.7845 11.7892C10.8283 12.0325 10.7256 12.2786 10.522 12.4192C10.3225 12.565 10.0571 12.5825 9.83953 12.4659L7.25594 11.1184C7.16611 11.0705 7.06636 11.0449 6.96428 11.042H6.80619C6.75136 11.0501 6.69769 11.0676 6.64869 11.0945L4.06453 12.4484C3.93678 12.5125 3.79211 12.5353 3.65036 12.5125C3.30503 12.4472 3.07461 12.1182 3.13119 11.7711L3.65036 8.90112C3.68478 8.69171 3.61536 8.47879 3.46428 8.33004L1.35786 6.28837C1.18169 6.11746 1.12044 5.86079 1.20094 5.62921C1.27911 5.39821 1.47861 5.22962 1.71953 5.19171L4.61869 4.77112C4.83919 4.74837 5.03286 4.61421 5.13203 4.41587L6.40953 1.79671C6.43986 1.73837 6.47894 1.68471 6.52619 1.63921L6.57869 1.59837C6.60611 1.56804 6.63761 1.54296 6.67261 1.52254L6.73619 1.49921L6.83536 1.45837H7.08094C7.30028 1.48112 7.49336 1.61237 7.59428 1.80837L8.88869 4.41587C8.98203 4.60662 9.16344 4.73904 9.37286 4.77112L12.272 5.19171C12.517 5.22671 12.7218 5.39587 12.8029 5.62921C12.8793 5.86312 12.8134 6.11979 12.6337 6.28837L10.452 8.35337Z" fill="url(#paint0_linear_1582_9968)"/>
<defs>
<linearGradient id="paint0_linear_1582_9968" x1="12.8342" y1="12.5424" x2="-0.934394" y2="8.33999" gradientUnits="userSpaceOnUse">
<stop stop-color="#FB9400"/>
<stop offset="1" stop-color="#FFAB38"/>
</linearGradient>
</defs>
</svg>
