<svg width="14" height="14" viewBox="0 0 14 14" fill="none" xmlns="http://www.w3.org/2000/svg">
<path fill-rule="evenodd" clip-rule="evenodd" d="M13.6663 4.27967V9.72634C13.6663 12.0797 12.1523 13.6663 9.89301 13.6663H4.11301C1.85301 13.6663 0.333008 12.0797 0.333008 9.72634V4.27967C0.333008 1.91967 1.85301 0.333008 4.11301 0.333008H9.89301C12.1523 0.333008 13.6663 1.91967 13.6663 4.27967ZM6.49967 5.48634V9.71968C6.49967 9.99967 6.72634 10.2197 6.99967 10.2197C7.27967 10.2197 7.49967 9.99967 7.49967 9.71968V5.48634L9.14634 7.13967C9.23967 7.23301 9.37301 7.28634 9.49967 7.28634C9.62567 7.28634 9.75301 7.23301 9.85301 7.13967C10.0463 6.94634 10.0463 6.62634 9.85301 6.43301L7.35301 3.91967C7.16634 3.73301 6.83301 3.73301 6.64634 3.91967L4.14634 6.43301C3.95301 6.62634 3.95301 6.94634 4.14634 7.13967C4.34634 7.33301 4.65967 7.33301 4.85967 7.13967L6.49967 5.48634Z" fill="url(#paint0_linear_1795_4489)"/>
<defs>
<linearGradient id="paint0_linear_1795_4489" x1="13.6663" y1="13.6663" x2="-2.19913" y2="9.06629" gradientUnits="userSpaceOnUse">
<stop stop-color="#FF4D67"/>
<stop offset="1" stop-color="#FF8A9B"/>
</linearGradient>
</defs>
</svg>
