<svg width="18" height="12" viewBox="0 0 18 12" fill="none" xmlns="http://www.w3.org/2000/svg">
<path fill-rule="evenodd" clip-rule="evenodd" d="M13.167 0.166656C14.0837 0.166656 14.8337 0.916656 14.8337 1.83332V4.04166C14.8337 4.41666 14.7087 4.78332 14.467 5.08332L11.567 8.70832C11.2503 9.09999 10.7753 9.33332 10.267 9.33332H7.33366C7.33366 10.7167 6.21699 11.8333 4.83366 11.8333C3.45033 11.8333 2.33366 10.7167 2.33366 9.33332H1.50033C1.04199 9.33332 0.666992 8.95832 0.666992 8.49999V6.83332C0.666992 4.99166 2.15866 3.49999 4.00033 3.49999H6.50033C6.95866 3.49999 7.33366 3.87499 7.33366 4.33332V7.66666H10.267L13.167 4.04166V1.83332H11.5003C11.042 1.83332 10.667 1.45832 10.667 0.99999C10.667 0.541656 11.042 0.166656 11.5003 0.166656H13.167ZM4.00033 9.33332C4.00033 9.79166 4.37533 10.1667 4.83366 10.1667C5.29199 10.1667 5.66699 9.79166 5.66699 9.33332H4.00033ZM6.50033 0.99999H4.00033C3.54199 0.99999 3.16699 1.37499 3.16699 1.83332C3.16699 2.29166 3.54199 2.66666 4.00033 2.66666H6.50033C6.95866 2.66666 7.33366 2.29166 7.33366 1.83332C7.33366 1.37499 6.95866 0.99999 6.50033 0.99999ZM12.3337 9.33332C12.3337 7.94999 13.4503 6.83332 14.8337 6.83332C16.217 6.83332 17.3337 7.94999 17.3337 9.33332C17.3337 10.7167 16.217 11.8333 14.8337 11.8333C13.4503 11.8333 12.3337 10.7167 12.3337 9.33332ZM14.0003 9.33332C14.0003 9.79166 14.3753 10.1667 14.8337 10.1667C15.292 10.1667 15.667 9.79166 15.667 9.33332C15.667 8.87499 15.292 8.49999 14.8337 8.49999C14.3753 8.49999 14.0003 8.87499 14.0003 9.33332Z" fill="url(#paint0_linear_1582_7035)"/>
<defs>
<linearGradient id="paint0_linear_1582_7035" x1="17.3337" y1="11.8333" x2="-1.01706" y2="4.23243" gradientUnits="userSpaceOnUse">
<stop stop-color="#1BAC4B"/>
<stop offset="1" stop-color="#46D375"/>
</linearGradient>
</defs>
</svg>
