<svg width="28" height="24" viewBox="0 0 28 24" fill="none" xmlns="http://www.w3.org/2000/svg">
<path fill-rule="evenodd" clip-rule="evenodd" d="M21.6912 7.17573H27.3327C27.3327 2.64612 24.6186 0 20.0201 0H7.97861C3.38009 0 0.666016 2.64612 0.666016 7.11796V16.882C0.666016 21.3539 3.38009 24 7.97861 24H20.0201C24.6186 24 27.3327 21.3539 27.3327 16.882V16.4661H21.6912C19.073 16.4661 16.9505 14.3967 16.9505 11.844C16.9505 9.29132 19.073 7.22196 21.6912 7.22196V7.17573ZM21.6912 9.16322H26.3371C26.887 9.16322 27.3327 9.59778 27.3327 10.1338V13.5079C27.3263 14.0414 26.8843 14.4723 26.3371 14.4786H21.7979C20.4724 14.496 19.3133 13.6112 19.0127 12.3524C18.8621 11.5711 19.0735 10.7648 19.5901 10.1496C20.1067 9.53449 20.8758 9.17343 21.6912 9.16322ZM21.8927 12.7106H22.3312C22.8941 12.7106 23.3505 12.2657 23.3505 11.7169C23.3505 11.1681 22.8941 10.7232 22.3312 10.7232H21.8927C21.6235 10.7201 21.3642 10.8222 21.1727 11.0067C20.9812 11.1912 20.8734 11.4428 20.8734 11.7053C20.8734 12.2561 21.3279 12.7043 21.8927 12.7106ZM6.98305 7.17573H14.509C15.0719 7.17573 15.5282 6.73082 15.5282 6.18199C15.5282 5.63317 15.0719 5.18825 14.509 5.18825H6.98305C6.42473 5.18822 5.97029 5.62613 5.96379 6.17044C5.96376 6.72117 6.41822 7.1694 6.98305 7.17573Z" fill="#1BAC4B"/>
</svg>
