<svg width="25" height="24" viewBox="0 0 25 24" fill="none" xmlns="http://www.w3.org/2000/svg">
<path fill-rule="evenodd" clip-rule="evenodd" d="M22.488 15.8955H18.44C16.543 15.8955 14.999 14.3526 14.998 12.4565C14.998 10.5585 16.542 9.01455 18.44 9.01355H22.488C22.902 9.01355 23.238 9.34955 23.238 9.76355C23.238 10.1775 22.902 10.5135 22.488 10.5135H18.44C17.369 10.5145 16.498 11.3855 16.498 12.4555C16.498 13.5245 17.37 14.3955 18.44 14.3955H22.488C22.902 14.3955 23.238 14.7315 23.238 15.1455C23.238 15.5595 22.902 15.8955 22.488 15.8955Z" fill="#9E9E9E"/>
<path fill-rule="evenodd" clip-rule="evenodd" d="M18.8979 13.1436H18.5859C18.1719 13.1436 17.8359 12.8076 17.8359 12.3936C17.8359 11.9796 18.1719 11.6436 18.5859 11.6436H18.8979C19.3119 11.6436 19.6479 11.9796 19.6479 12.3936C19.6479 12.8076 19.3119 13.1436 18.8979 13.1436Z" fill="#9E9E9E"/>
<mask id="mask0_1539_9762" style="mask-type:luminance" maskUnits="userSpaceOnUse" x="2" y="3" width="22" height="20">
<path fill-rule="evenodd" clip-rule="evenodd" d="M2.59961 3H23.2382V22.1729H2.59961V3Z" fill="white"/>
</mask>
<g mask="url(#mask0_1539_9762)">
<path fill-rule="evenodd" clip-rule="evenodd" d="M8.59761 4.5C6.11761 4.5 4.09961 6.518 4.09961 8.998V16.175C4.09961 18.655 6.11761 20.673 8.59761 20.673H17.2416C19.7216 20.673 21.7386 18.655 21.7386 16.175V8.998C21.7386 6.518 19.7216 4.5 17.2416 4.5H8.59761ZM17.2416 22.173H8.59761C5.29061 22.173 2.59961 19.482 2.59961 16.175V8.998C2.59961 5.69 5.29061 3 8.59761 3H17.2416C20.5486 3 23.2386 5.69 23.2386 8.998V16.175C23.2386 19.482 20.5486 22.173 17.2416 22.173Z" fill="#9E9E9E"/>
</g>
<path fill-rule="evenodd" clip-rule="evenodd" d="M13.2838 9.03809H7.88477C7.47077 9.03809 7.13477 8.70209 7.13477 8.28809C7.13477 7.87409 7.47077 7.53809 7.88477 7.53809H13.2838C13.6978 7.53809 14.0338 7.87409 14.0338 8.28809C14.0338 8.70209 13.6978 9.03809 13.2838 9.03809Z" fill="#9E9E9E"/>
</svg>
